{"title":"Daddy Yankee - La Nueva y La Ex HD 720p x264 AAC Sp-Subs [GWC].m","uid":9580825,"size":43246073,"categoryP":"video","categoryS":"music_videos","magnet":"?xt=urn:btih:503132917519dd7b82141b652a135119ad931ca3&amp;dn=Daddy+Yankee+-+La+Nueva+y+La+Ex+HD+720p+x264+AAC+Sp-Subs+%5BGWC%5D.m&amp;tr=udp%3A%2F%2Ftracker.openbittorrent.com%3A80&amp;tr=udp%3A%2F%2Fopen.demonii.com%3A1337&amp;tr=udp%3A%2F%2Ftracker.coppersurfer.tk%3A6969&amp;tr=udp%3A%2F%2Fexodus.desync.com%3A6969","seeders":2,"leechers":0,"uploader":"canc232","files":1,"time":1391763158,"description":"Daddy Yankee - La Nueva y La Ex HD 720p x264 AAC Sp-Subs [GWC] \n\n\nCOVER : &lt;a href=&quot;\nhttp://imageshack.com/a/img838/9976/ldei.jpg&quot; rel=&quot;nofollow&quot; target=&quot;_NEW&quot;&gt;\nhttp://imageshack.com/a/img838/9976/ldei.jpg&lt;/a&gt;\n\n\nTHUMBNAIL IMAGE : &lt;a href=&quot;\nhttp://img843.imageshack.us/img843/590/jeod.jpg&quot; rel=&quot;nofollow&quot; target=&quot;_NEW&quot;&gt;\nhttp://img843.imageshack.us/img843/590/jeod.jpg&lt;/a&gt;\n\n\nMEDIA INFO :\nGeneral \nFormat : MPEG-4 \nFormat profile : Base Media \nFile size : 41.2 MiB \nDuration : 4mn 0s \nOverall bit rate mode : Variable \nOverall bit rate : 1 440 Kbps \n\nVideo \nFormat : AVC \nFormat profile : &lt;a class=&quot;__cf_email__&quot; href=&quot;/cdn-cgi/l/email-protection&quot; data-cfemail=&quot;b2ffd3dbdcf2fe819c83&quot;&gt;[email&amp;#160;protected]&lt;/a&gt;&lt;script cf-hash='f9e31' type=&quot;text/javascript&quot;&gt;\n/* &lt;![CDATA[ */!function(){try{var t=&quot;currentScript&quot;in document?document.currentScript:function(){for(var t=document.getElementsByTagName(&quot;script&quot;),e=t.length;e--;)if(t[e].getAttribute(&quot;cf-hash&quot;))return t[e]}();if(t&amp;&amp;t.previousSibling){var e,r,n,i,c=t.previousSibling,a=c.getAttribute(&quot;data-cfemail&quot;);if(a){for(e=&quot;&quot;,r=parseInt(a.substr(0,2),16),n=2;a.length-n;n+=2)i=parseInt(a.substr(n,2),16)^r,e+=String.fromCharCode(i);e=document.createTextNode(e),c.parentNode.replaceChild(e,c)}}}catch(u){}}();/* ]]&gt; */&lt;/script&gt; \nFormat settings, CABAC : Yes \nDuration : 4mn 0s \nBit rate : 1 351 Kbps \nMaximum bit rate : 2 904 Kbps \nWidth : 1 280 pixels \nHeight : 720 pixels \nDisplay aspect ratio : 16:9 \nFrame rate mode : Variable \nStream size : 38.7 MiB (94%) \nTitle : Daddy Yankee - La Nueva y La Ex HD 720p x264 AAC Sp-Subs [GWC] \n\nAudio \nFormat : AAC \nFormat profile : LC \nDuration : 4mn 0s \nBit rate mode : Variable \nChannel(s) : 2 channels \nSampling rate : 48.0 KHz \nStream size : 2.46 MiB (6%) \nLanguage : Spanish \n\nText \nFormat : Timed Text \nDuration : 3mn 59s \nTitle : Spanish Subtitle by [GWC] \nLanguage : Spanish ","torrent":{"xt":"urn:btih:503132917519dd7b82141b652a135119ad931ca3","amp;dn":"Daddy+Yankee+-+La+Nueva+y+La+Ex+HD+720p+x264+AAC+Sp-Subs+%5BGWC%5D.m","amp;tr":["udp%3A%2F%2Ftracker.openbittorrent.com%3A80","udp%3A%2F%2Fopen.demonii.com%3A1337","udp%3A%2F%2Ftracker.coppersurfer.tk%3A6969","udp%3A%2F%2Fexodus.desync.com%3A6969"],"infoHash":"503132917519dd7b82141b652a135119ad931ca3","infoHashBuffer":{"type":"Buffer","data":[80,49,50,145,117,25,221,123,130,20,27,101,42,19,81,25,173,147,28,163]},"announce":[],"urlList":[]}}